<mxfile host="app.diagrams.net" agent="Mozilla/5.0 (Windows NT 10.0; Win64; x64) AppleWebKit/537.36 (KHTML, like Gecko) Chrome/133.0.0.0 Safari/537.36" version="26.0.11">
  <diagram name="PÃ¡gina-1" id="g8IW8IR_BWZXAPFhbi1Y">
    <mxGraphModel dx="794" dy="434" grid="1" gridSize="10" guides="1" tooltips="1" connect="1" arrows="1" fold="1" page="1" pageScale="1" pageWidth="827" pageHeight="1169" math="0" shadow="0">
      <root>
        <mxCell id="0" />
        <mxCell id="1" parent="0" />
        <mxCell id="RAtLii5-wXl-lZFZI20z-43" value="" style="edgeStyle=orthogonalEdgeStyle;rounded=0;orthogonalLoop=1;jettySize=auto;html=1;" edge="1" parent="1" source="RAtLii5-wXl-lZFZI20z-1" target="RAtLii5-wXl-lZFZI20z-39">
          <mxGeometry relative="1" as="geometry" />
        </mxCell>
        <mxCell id="RAtLii5-wXl-lZFZI20z-48" style="rounded=0;orthogonalLoop=1;jettySize=auto;html=1;exitX=1;exitY=1;exitDx=0;exitDy=0;endArrow=none;startFill=0;entryX=0;entryY=0.5;entryDx=0;entryDy=0;" edge="1" parent="1" source="RAtLii5-wXl-lZFZI20z-1" target="RAtLii5-wXl-lZFZI20z-46">
          <mxGeometry relative="1" as="geometry" />
        </mxCell>
        <mxCell id="RAtLii5-wXl-lZFZI20z-1" value="paciente" style="rounded=0;whiteSpace=wrap;html=1;" vertex="1" parent="1">
          <mxGeometry x="120" y="110" width="120" height="60" as="geometry" />
        </mxCell>
        <mxCell id="RAtLii5-wXl-lZFZI20z-40" style="rounded=0;orthogonalLoop=1;jettySize=auto;html=1;exitX=0;exitY=0.5;exitDx=0;exitDy=0;endArrow=none;startFill=0;" edge="1" parent="1" source="RAtLii5-wXl-lZFZI20z-2" target="RAtLii5-wXl-lZFZI20z-39">
          <mxGeometry relative="1" as="geometry" />
        </mxCell>
        <mxCell id="RAtLii5-wXl-lZFZI20z-2" value="Medico" style="rounded=0;whiteSpace=wrap;html=1;" vertex="1" parent="1">
          <mxGeometry x="520" y="110" width="120" height="60" as="geometry" />
        </mxCell>
        <mxCell id="RAtLii5-wXl-lZFZI20z-47" style="rounded=0;orthogonalLoop=1;jettySize=auto;html=1;exitX=0;exitY=0;exitDx=0;exitDy=0;entryX=1;entryY=0.5;entryDx=0;entryDy=0;endArrow=none;startFill=0;" edge="1" parent="1" source="RAtLii5-wXl-lZFZI20z-3" target="RAtLii5-wXl-lZFZI20z-46">
          <mxGeometry relative="1" as="geometry" />
        </mxCell>
        <mxCell id="RAtLii5-wXl-lZFZI20z-3" value="Clinica" style="rounded=0;whiteSpace=wrap;html=1;" vertex="1" parent="1">
          <mxGeometry x="353.5" y="290" width="120" height="60" as="geometry" />
        </mxCell>
        <mxCell id="RAtLii5-wXl-lZFZI20z-22" style="rounded=0;orthogonalLoop=1;jettySize=auto;html=1;exitX=0.5;exitY=1;exitDx=0;exitDy=0;entryX=0.75;entryY=0;entryDx=0;entryDy=0;endArrow=none;startFill=0;" edge="1" parent="1" source="RAtLii5-wXl-lZFZI20z-4" target="RAtLii5-wXl-lZFZI20z-1">
          <mxGeometry relative="1" as="geometry" />
        </mxCell>
        <mxCell id="RAtLii5-wXl-lZFZI20z-4" value="&lt;u&gt;DUI&lt;/u&gt;" style="ellipse;whiteSpace=wrap;html=1;" vertex="1" parent="1">
          <mxGeometry x="240" y="10" width="100" height="60" as="geometry" />
        </mxCell>
        <mxCell id="RAtLii5-wXl-lZFZI20z-24" style="rounded=0;orthogonalLoop=1;jettySize=auto;html=1;exitX=0.5;exitY=1;exitDx=0;exitDy=0;endArrow=none;startFill=0;" edge="1" parent="1" source="RAtLii5-wXl-lZFZI20z-6" target="RAtLii5-wXl-lZFZI20z-1">
          <mxGeometry relative="1" as="geometry" />
        </mxCell>
        <mxCell id="RAtLii5-wXl-lZFZI20z-6" value="nombre" style="ellipse;whiteSpace=wrap;html=1;" vertex="1" parent="1">
          <mxGeometry x="10" y="10" width="100" height="60" as="geometry" />
        </mxCell>
        <mxCell id="RAtLii5-wXl-lZFZI20z-7" value="Apellido&lt;span style=&quot;color: rgba(0, 0, 0, 0); font-family: monospace; font-size: 0px; text-align: start; text-wrap-mode: nowrap;&quot;&gt;%3CmxGraphModel%3E%3Croot%3E%3CmxCell%20id%3D%220%22%2F%3E%3CmxCell%20id%3D%221%22%20parent%3D%220%22%2F%3E%3CmxCell%20id%3D%222%22%20value%3D%22nombre%22%20style%3D%22ellipse%3BwhiteSpace%3Dwrap%3Bhtml%3D1%3B%22%20vertex%3D%221%22%20parent%3D%221%22%3E%3CmxGeometry%20x%3D%2210%22%20y%3D%2270%22%20width%3D%22100%22%20height%3D%2260%22%20as%3D%22geometry%22%2F%3E%3C%2FmxCell%3E%3C%2Froot%3E%3C%2FmxGraphModel%3E&lt;/span&gt;&lt;span style=&quot;color: rgba(0, 0, 0, 0); font-family: monospace; font-size: 0px; text-align: start; text-wrap-mode: nowrap;&quot;&gt;%3CmxGraphModel%3E%3Croot%3E%3CmxCell%20id%3D%220%22%2F%3E%3CmxCell%20id%3D%221%22%20parent%3D%220%22%2F%3E%3CmxCell%20id%3D%222%22%20value%3D%22nombre%22%20style%3D%22ellipse%3BwhiteSpace%3Dwrap%3Bhtml%3D1%3B%22%20vertex%3D%221%22%20parent%3D%221%22%3E%3CmxGeometry%20x%3D%2210%22%20y%3D%2270%22%20width%3D%22100%22%20height%3D%2260%22%20as%3D%22geometry%22%2F%3E%3C%2FmxCell%3E%3C%2Froot%3E%3C%2FmxGraphModel%3E&lt;/span&gt;" style="ellipse;whiteSpace=wrap;html=1;" vertex="1" parent="1">
          <mxGeometry y="90" width="100" height="50" as="geometry" />
        </mxCell>
        <mxCell id="RAtLii5-wXl-lZFZI20z-26" style="rounded=0;orthogonalLoop=1;jettySize=auto;html=1;exitX=1;exitY=0;exitDx=0;exitDy=0;endArrow=none;startFill=0;" edge="1" parent="1" source="RAtLii5-wXl-lZFZI20z-8" target="RAtLii5-wXl-lZFZI20z-1">
          <mxGeometry relative="1" as="geometry" />
        </mxCell>
        <mxCell id="RAtLii5-wXl-lZFZI20z-8" value="direccion" style="ellipse;whiteSpace=wrap;html=1;" vertex="1" parent="1">
          <mxGeometry y="160" width="100" height="60" as="geometry" />
        </mxCell>
        <mxCell id="RAtLii5-wXl-lZFZI20z-9" value="telefono" style="ellipse;whiteSpace=wrap;html=1;" vertex="1" parent="1">
          <mxGeometry y="240" width="100" height="60" as="geometry" />
        </mxCell>
        <mxCell id="RAtLii5-wXl-lZFZI20z-10" value="fecha_nacimiento" style="ellipse;whiteSpace=wrap;html=1;" vertex="1" parent="1">
          <mxGeometry x="120" y="240" width="100" height="60" as="geometry" />
        </mxCell>
        <mxCell id="RAtLii5-wXl-lZFZI20z-23" style="rounded=0;orthogonalLoop=1;jettySize=auto;html=1;exitX=0.5;exitY=1;exitDx=0;exitDy=0;endArrow=none;startFill=0;" edge="1" parent="1" source="RAtLii5-wXl-lZFZI20z-11" target="RAtLii5-wXl-lZFZI20z-1">
          <mxGeometry relative="1" as="geometry" />
        </mxCell>
        <mxCell id="RAtLii5-wXl-lZFZI20z-11" value="codigo_postal" style="ellipse;whiteSpace=wrap;html=1;" vertex="1" parent="1">
          <mxGeometry x="130" width="100" height="60" as="geometry" />
        </mxCell>
        <mxCell id="RAtLii5-wXl-lZFZI20z-29" style="rounded=0;orthogonalLoop=1;jettySize=auto;html=1;exitX=1;exitY=1;exitDx=0;exitDy=0;entryX=0;entryY=0;entryDx=0;entryDy=0;endArrow=none;startFill=0;" edge="1" parent="1" source="RAtLii5-wXl-lZFZI20z-12" target="RAtLii5-wXl-lZFZI20z-2">
          <mxGeometry relative="1" as="geometry" />
        </mxCell>
        <mxCell id="RAtLii5-wXl-lZFZI20z-12" value="&lt;u&gt;Identificacion&lt;/u&gt;" style="ellipse;whiteSpace=wrap;html=1;" vertex="1" parent="1">
          <mxGeometry x="440" y="10" width="100" height="60" as="geometry" />
        </mxCell>
        <mxCell id="RAtLii5-wXl-lZFZI20z-13" value="nombre" style="ellipse;whiteSpace=wrap;html=1;" vertex="1" parent="1">
          <mxGeometry x="540" y="10" width="100" height="60" as="geometry" />
        </mxCell>
        <mxCell id="RAtLii5-wXl-lZFZI20z-14" value="apellido" style="ellipse;whiteSpace=wrap;html=1;" vertex="1" parent="1">
          <mxGeometry x="660" y="40" width="100" height="60" as="geometry" />
        </mxCell>
        <mxCell id="RAtLii5-wXl-lZFZI20z-32" style="rounded=0;orthogonalLoop=1;jettySize=auto;html=1;exitX=0;exitY=0.5;exitDx=0;exitDy=0;entryX=1;entryY=0.75;entryDx=0;entryDy=0;endArrow=none;startFill=0;" edge="1" parent="1" source="RAtLii5-wXl-lZFZI20z-15" target="RAtLii5-wXl-lZFZI20z-2">
          <mxGeometry relative="1" as="geometry" />
        </mxCell>
        <mxCell id="RAtLii5-wXl-lZFZI20z-15" value="telefono" style="ellipse;whiteSpace=wrap;html=1;" vertex="1" parent="1">
          <mxGeometry x="660" y="120" width="100" height="60" as="geometry" />
        </mxCell>
        <mxCell id="RAtLii5-wXl-lZFZI20z-16" value="especialidad" style="ellipse;whiteSpace=wrap;html=1;" vertex="1" parent="1">
          <mxGeometry x="640" y="200" width="100" height="60" as="geometry" />
        </mxCell>
        <mxCell id="RAtLii5-wXl-lZFZI20z-34" style="rounded=0;orthogonalLoop=1;jettySize=auto;html=1;exitX=0;exitY=0;exitDx=0;exitDy=0;entryX=1;entryY=0.5;entryDx=0;entryDy=0;endArrow=none;startFill=0;" edge="1" parent="1" source="RAtLii5-wXl-lZFZI20z-18" target="RAtLii5-wXl-lZFZI20z-3">
          <mxGeometry relative="1" as="geometry" />
        </mxCell>
        <mxCell id="RAtLii5-wXl-lZFZI20z-18" value="&lt;u&gt;codigo_ingreso&lt;/u&gt;" style="ellipse;whiteSpace=wrap;html=1;" vertex="1" parent="1">
          <mxGeometry x="520" y="300" width="100" height="60" as="geometry" />
        </mxCell>
        <mxCell id="RAtLii5-wXl-lZFZI20z-19" value="numero_habitacion" style="ellipse;whiteSpace=wrap;html=1;" vertex="1" parent="1">
          <mxGeometry x="473.5" y="370" width="110" height="60" as="geometry" />
        </mxCell>
        <mxCell id="RAtLii5-wXl-lZFZI20z-20" value="numero_c&lt;span style=&quot;color: rgba(0, 0, 0, 0); font-family: monospace; font-size: 0px; text-align: start; text-wrap-mode: nowrap;&quot;&gt;%3CmxGraphModel%3E%3Croot%3E%3CmxCell%20id%3D%220%22%2F%3E%3CmxCell%20id%3D%221%22%20parent%3D%220%22%2F%3E%3CmxCell%20id%3D%222%22%20value%3D%22numero_habitacion%22%20style%3D%22ellipse%3BwhiteSpace%3Dwrap%3Bhtml%3D1%3B%22%20vertex%3D%221%22%20parent%3D%221%22%3E%3CmxGeometry%20x%3D%22480%22%20y%3D%22360%22%20width%3D%22110%22%20height%3D%2260%22%20as%3D%22geometry%22%2F%3E%3C%2FmxCell%3E%3C%2Froot%3E%3C%2FmxGraphModel%3E&lt;/span&gt;ama" style="ellipse;whiteSpace=wrap;html=1;" vertex="1" parent="1">
          <mxGeometry x="353.5" y="390" width="110" height="60" as="geometry" />
        </mxCell>
        <mxCell id="RAtLii5-wXl-lZFZI20z-38" style="rounded=0;orthogonalLoop=1;jettySize=auto;html=1;exitX=1;exitY=0;exitDx=0;exitDy=0;entryX=0;entryY=0.75;entryDx=0;entryDy=0;endArrow=none;startFill=0;" edge="1" parent="1" source="RAtLii5-wXl-lZFZI20z-21" target="RAtLii5-wXl-lZFZI20z-3">
          <mxGeometry relative="1" as="geometry" />
        </mxCell>
        <mxCell id="RAtLii5-wXl-lZFZI20z-21" value="fecha_ingreso" style="ellipse;whiteSpace=wrap;html=1;" vertex="1" parent="1">
          <mxGeometry x="230" y="390" width="110" height="60" as="geometry" />
        </mxCell>
        <mxCell id="RAtLii5-wXl-lZFZI20z-25" style="rounded=0;orthogonalLoop=1;jettySize=auto;html=1;exitX=1;exitY=1;exitDx=0;exitDy=0;endArrow=none;startFill=0;" edge="1" parent="1" source="RAtLii5-wXl-lZFZI20z-7">
          <mxGeometry relative="1" as="geometry">
            <mxPoint x="120" y="156" as="targetPoint" />
          </mxGeometry>
        </mxCell>
        <mxCell id="RAtLii5-wXl-lZFZI20z-27" style="rounded=0;orthogonalLoop=1;jettySize=auto;html=1;exitX=0.5;exitY=0;exitDx=0;exitDy=0;entryX=0.358;entryY=0.967;entryDx=0;entryDy=0;entryPerimeter=0;endArrow=none;startFill=0;" edge="1" parent="1" source="RAtLii5-wXl-lZFZI20z-9" target="RAtLii5-wXl-lZFZI20z-1">
          <mxGeometry relative="1" as="geometry" />
        </mxCell>
        <mxCell id="RAtLii5-wXl-lZFZI20z-28" style="rounded=0;orthogonalLoop=1;jettySize=auto;html=1;exitX=0.5;exitY=0;exitDx=0;exitDy=0;entryX=0.808;entryY=0.983;entryDx=0;entryDy=0;entryPerimeter=0;endArrow=none;startFill=0;" edge="1" parent="1" source="RAtLii5-wXl-lZFZI20z-10" target="RAtLii5-wXl-lZFZI20z-1">
          <mxGeometry relative="1" as="geometry" />
        </mxCell>
        <mxCell id="RAtLii5-wXl-lZFZI20z-30" style="rounded=0;orthogonalLoop=1;jettySize=auto;html=1;exitX=0.5;exitY=1;exitDx=0;exitDy=0;entryX=0.408;entryY=-0.033;entryDx=0;entryDy=0;entryPerimeter=0;endArrow=none;startFill=0;" edge="1" parent="1" source="RAtLii5-wXl-lZFZI20z-13" target="RAtLii5-wXl-lZFZI20z-2">
          <mxGeometry relative="1" as="geometry" />
        </mxCell>
        <mxCell id="RAtLii5-wXl-lZFZI20z-31" style="rounded=0;orthogonalLoop=1;jettySize=auto;html=1;exitX=0;exitY=1;exitDx=0;exitDy=0;entryX=1.017;entryY=0.15;entryDx=0;entryDy=0;entryPerimeter=0;endArrow=none;startFill=0;" edge="1" parent="1" source="RAtLii5-wXl-lZFZI20z-14" target="RAtLii5-wXl-lZFZI20z-2">
          <mxGeometry relative="1" as="geometry" />
        </mxCell>
        <mxCell id="RAtLii5-wXl-lZFZI20z-33" style="rounded=0;orthogonalLoop=1;jettySize=auto;html=1;exitX=0;exitY=0;exitDx=0;exitDy=0;entryX=0.883;entryY=1.033;entryDx=0;entryDy=0;entryPerimeter=0;endArrow=none;startFill=0;" edge="1" parent="1" source="RAtLii5-wXl-lZFZI20z-16" target="RAtLii5-wXl-lZFZI20z-2">
          <mxGeometry relative="1" as="geometry" />
        </mxCell>
        <mxCell id="RAtLii5-wXl-lZFZI20z-35" style="rounded=0;orthogonalLoop=1;jettySize=auto;html=1;exitX=0.5;exitY=0;exitDx=0;exitDy=0;entryX=0.917;entryY=1;entryDx=0;entryDy=0;entryPerimeter=0;endArrow=none;startFill=0;" edge="1" parent="1" source="RAtLii5-wXl-lZFZI20z-19" target="RAtLii5-wXl-lZFZI20z-3">
          <mxGeometry relative="1" as="geometry" />
        </mxCell>
        <mxCell id="RAtLii5-wXl-lZFZI20z-36" style="rounded=0;orthogonalLoop=1;jettySize=auto;html=1;exitX=0.5;exitY=0;exitDx=0;exitDy=0;entryX=0.417;entryY=1;entryDx=0;entryDy=0;entryPerimeter=0;endArrow=none;startFill=0;" edge="1" parent="1" source="RAtLii5-wXl-lZFZI20z-20" target="RAtLii5-wXl-lZFZI20z-3">
          <mxGeometry relative="1" as="geometry" />
        </mxCell>
        <mxCell id="RAtLii5-wXl-lZFZI20z-41" style="rounded=0;orthogonalLoop=1;jettySize=auto;html=1;exitX=0;exitY=0.5;exitDx=0;exitDy=0;entryX=1;entryY=0.5;entryDx=0;entryDy=0;endArrow=none;startFill=0;" edge="1" parent="1" source="RAtLii5-wXl-lZFZI20z-39" target="RAtLii5-wXl-lZFZI20z-1">
          <mxGeometry relative="1" as="geometry" />
        </mxCell>
        <mxCell id="RAtLii5-wXl-lZFZI20z-39" value="Atiende" style="rhombus;whiteSpace=wrap;html=1;" vertex="1" parent="1">
          <mxGeometry x="340" y="100" width="80" height="80" as="geometry" />
        </mxCell>
        <mxCell id="RAtLii5-wXl-lZFZI20z-42" value="1" style="text;html=1;align=center;verticalAlign=middle;resizable=0;points=[];autosize=1;strokeColor=none;fillColor=none;" vertex="1" parent="1">
          <mxGeometry x="495" y="118" width="30" height="30" as="geometry" />
        </mxCell>
        <mxCell id="RAtLii5-wXl-lZFZI20z-44" value="N" style="text;html=1;align=center;verticalAlign=middle;resizable=0;points=[];autosize=1;strokeColor=none;fillColor=none;" vertex="1" parent="1">
          <mxGeometry x="240" y="118" width="30" height="30" as="geometry" />
        </mxCell>
        <mxCell id="RAtLii5-wXl-lZFZI20z-46" value="ingresar" style="rhombus;whiteSpace=wrap;html=1;" vertex="1" parent="1">
          <mxGeometry x="245" y="200" width="80" height="80" as="geometry" />
        </mxCell>
        <mxCell id="RAtLii5-wXl-lZFZI20z-50" value="N" style="text;html=1;align=center;verticalAlign=middle;resizable=0;points=[];autosize=1;strokeColor=none;fillColor=none;" vertex="1" parent="1">
          <mxGeometry x="235" y="158" width="30" height="30" as="geometry" />
        </mxCell>
        <mxCell id="RAtLii5-wXl-lZFZI20z-51" value="1" style="text;html=1;align=center;verticalAlign=middle;resizable=0;points=[];autosize=1;strokeColor=none;fillColor=none;" vertex="1" parent="1">
          <mxGeometry x="345" y="258" width="30" height="30" as="geometry" />
        </mxCell>
      </root>
    </mxGraphModel>
  </diagram>
</mxfile>
